# xmcd
#
# Track frame offsets: 
#        150
#        28023
#        59832
#        82500
#        96216
#        136395
#        155165
#        171828
#
# Disc length: 2583 seconds
#
# Revision: 0
# Processed by: cddbd v1.5.2PL0 Copyright (c) Steve Scherf et al.
# Submitted via: ExactAudioCopy v1.0b4
#
DISCID=650a1508
DTITLE=Big Voice Odom - Feel So Good (LP)
DYEAR=1982
DGENRE=Blues
TTITLE0=Feel So Good
TTITLE1=I Made Up My Mind
TTITLE2=Mother-In-Law Blues
TTITLE3=Woke Up This Morning
TTITLE4=Memo Blues
TTITLE5=Bad Feeling
TTITLE6=You Say That You Love Me, Honey
TTITLE7=Reconsider Baby
EXTD=
EXTT0=
EXTT1=
EXTT2=
EXTT3=
EXTT4=
EXTT5=
EXTT6=
EXTT7=
PLAYORDER=
